<svg xmlns="http://www.w3.org/2000/svg" xmlns:xlink="http://www.w3.org/1999/xlink" width="100" height="100" viewBox="0 0 100 100">
  <defs>
    <clipPath id="clip-path">
      <rect id="사각형_49321" data-name="사각형 49321" width="100" height="100" transform="translate(-13810 -14112)" fill="#fff"/>
    </clipPath>
  </defs>
  <g id="마스크_그룹_694" data-name="마스크 그룹 694" transform="translate(13810 14112)" clip-path="url(#clip-path)">
    <g id="그룹_6" data-name="그룹 6" transform="translate(-13810 -14068.202)">
      <path id="패스_6" data-name="패스 6" d="M10.333,0A4.882,4.882,0,0,0,5.167,4.133a3.313,3.313,0,0,1,3.615-1.55,4.4,4.4,0,0,1,1.971,1.4A5.964,5.964,0,0,0,15.5,6.2a4.884,4.884,0,0,0,5.166-4.133,3.313,3.313,0,0,1-3.616,1.55,4.4,4.4,0,0,1-1.97-1.4A5.964,5.964,0,0,0,10.333,0ZM5.167,6.2A4.883,4.883,0,0,0,0,10.332a3.313,3.313,0,0,1,3.617-1.55,4.407,4.407,0,0,1,1.97,1.4A5.964,5.964,0,0,0,10.333,12.4,4.883,4.883,0,0,0,15.5,8.271a3.313,3.313,0,0,1-3.616,1.55,4.405,4.405,0,0,1-1.97-1.4A5.963,5.963,0,0,0,5.167,6.194Z" fill="#38bdf8"/>
      <path id="패스_7" data-name="패스 7" d="M154.3,6.948h-1.8v3.489c0,.93.61.916,1.8.858v1.411c-2.413.291-3.374-.378-3.374-2.269V6.948H149.59V5.435h1.334V3.482l1.571-.466V5.435h1.8Zm6.873-1.512h1.575v7.27h-1.571V11.659a2.988,2.988,0,0,1-2.542,1.236,3.715,3.715,0,0,1-3.621-3.824,3.706,3.706,0,0,1,3.621-3.824,3.014,3.014,0,0,1,2.545,1.223Zm-2.3,5.962a2.247,2.247,0,0,0,2.3-2.327,2.3,2.3,0,1,0-4.6,0,2.247,2.247,0,0,0,2.3,2.327Zm6.485-7.052a1,1,0,1,1,1-1,1.015,1.015,0,0,1-1,1Zm-.785,8.361V5.435h1.571v7.271Zm3.388,0V2.091h1.571V12.706Zm11.764-7.27h1.657L179.1,12.707h-1.542l-1.512-4.9-1.526,4.9h-1.541L170.7,5.437h1.657l1.414,5.012,1.526-5.017h1.5l1.519,5.017Zm3.606-1.091a1,1,0,1,1,1-1,1.015,1.015,0,0,1-1,1Zm-.785,8.361V5.435h1.571v7.271Zm7.212-7.459a2.715,2.715,0,0,1,2.792,3v4.463h-1.57V8.4a1.515,1.515,0,0,0-1.629-1.686c-1.033,0-1.846.61-1.846,2.093v3.9h-1.571V5.435h1.571v.93a2.5,2.5,0,0,1,2.252-1.119ZM200,2.528h1.571V12.706H200V11.659a2.988,2.988,0,0,1-2.545,1.236,3.715,3.715,0,0,1-3.621-3.824,3.706,3.706,0,0,1,3.621-3.824A3.014,3.014,0,0,1,200,6.47Zm-2.3,8.87A2.247,2.247,0,0,0,200,9.071a2.3,2.3,0,1,0-4.594,0,2.247,2.247,0,0,0,2.3,2.327Zm9.132,1.5a3.76,3.76,0,0,1-3.839-3.824,3.751,3.751,0,0,1,3.839-3.824,3.592,3.592,0,0,1,3.243,1.875l-1.353.785a2.032,2.032,0,0,0-1.905-1.119,2.223,2.223,0,0,0-2.254,2.283,2.223,2.223,0,0,0,2.254,2.283,2.134,2.134,0,0,0,1.934-1.119l1.353.77a3.655,3.655,0,0,1-3.272,1.89Zm5.86-5.453c0,1.323,3.912.524,3.912,3.214,0,1.454-1.265,2.239-2.836,2.239a3.034,3.034,0,0,1-2.966-1.7l1.353-.785a1.6,1.6,0,0,0,1.614,1.047c.7,0,1.236-.232,1.236-.814,0-1.294-3.912-.567-3.912-3.17a2.376,2.376,0,0,1,2.661-2.223,2.927,2.927,0,0,1,2.69,1.512l-1.323.741a1.417,1.417,0,0,0-1.365-.833c-.567,0-1.062.247-1.062.77Zm6.7,0c0,1.323,3.912.524,3.912,3.214,0,1.454-1.265,2.239-2.836,2.239a3.034,3.034,0,0,1-2.967-1.7l1.353-.785a1.6,1.6,0,0,0,1.614,1.047c.7,0,1.236-.232,1.236-.814,0-1.294-3.912-.567-3.912-3.17a2.376,2.376,0,0,1,2.661-2.223,2.927,2.927,0,0,1,2.69,1.512l-1.323.741a1.417,1.417,0,0,0-1.364-.833c-.567,0-1.062.247-1.062.77Z" transform="translate(-123.306 -1.724)" fill="#0f172a"/>
    </g>
  </g>
</svg>
